<svg width="168" height="115" viewBox="0 0 168 115" fill="none" xmlns="http://www.w3.org/2000/svg">
<path d="M164.839 88.8773C164.839 88.8773 88.4393 139.086 0.39932 20.9637C0.39932 20.9637 139.857 -11.1131 164.839 88.8773Z" fill="url(#paint0_linear)"/>
<path opacity="0.08" d="M122.334 32.0914C113.746 60.8293 78.9866 68.7117 46.2537 69.425C113.284 122.594 164.839 88.8774 164.839 88.8774C157.814 60.6469 141.841 42.9354 122.334 32.0914Z" fill="#1F5148"/>
<path opacity="0.8" d="M92.1091 25.574L107.726 63.5703L57.6848 43.7803L49.0539 22.1718L55.0887 42.6299L39.6363 36.6996L39.5744 36.2138L39.0923 36.2752L15.3696 26.9554L37.6461 36.4594L21.5644 40.9758L40.304 38.0955L40.2421 37.6097L80.6907 55.166L48.8858 63.1658L83.8307 56.7407L133.638 78.5352C133.155 78.5966 132.673 78.658 132.191 78.7194C127.914 79.7577 121.709 81.0417 115.986 82.2642C104.057 84.7707 92.1908 87.763 92.1908 87.763C92.1908 87.763 104.181 85.7422 116.11 83.2358C121.895 82.499 128.1 81.2151 132.439 80.6625C134.367 80.4169 135.813 80.2327 136.777 80.1099L163.702 91.4902L165.976 86.2642L110.26 64.2349L92.1091 25.574Z" fill="#1F5148"/>
<defs>
<linearGradient id="paint0_linear" x1="34.7134" y1="-536.326" x2="197.294" y2="1487.54" gradientUnits="userSpaceOnUse">
<stop stop-color="#41CBB9"/>
<stop offset="1" stop-color="#3EB29D"/>
</linearGradient>
</defs>
</svg>
