<svg width="140" height="119" viewBox="0 0 140 119" fill="none" xmlns="http://www.w3.org/2000/svg">
<path d="M136.195 61.5862C136.195 61.5862 93.5304 116.997 0.332381 53.6386C0.332381 53.6386 93.1165 -4.44334 136.195 61.5862Z" fill="url(#paint0_linear)"/>
<path opacity="0.08" d="M91.2598 31.1725C92.2427 54.0951 69.0884 68.4904 45.605 77.1963C107.363 98.8588 136.195 61.5861 136.195 61.5861C124.053 42.9367 108.075 34.1302 91.2598 31.1725Z" fill="#1F5148"/>
<path opacity="0.8" d="M67.7806 34.0239L88.5771 57.5828L47.4516 55.7982L35.8058 42.3376L45.2872 55.6163L32.6331 55.1958L32.4669 54.8602L32.1337 55.0252L12.6532 54.2239L31.1344 55.5202L20.6394 62.8088L33.4651 56.0378L33.2988 55.7022L66.931 58.2722L45.9417 72.0132L69.5948 58.6249L111.052 61.9171C110.719 62.0821 110.386 62.2471 110.053 62.4121C107.221 64.2329 103.057 66.7137 99.2253 69.0294C91.2297 73.826 83.4003 78.9582 83.4003 78.9582C83.4003 78.9582 91.5622 74.4973 99.5578 69.7008C103.555 67.7207 107.72 65.2399 110.718 63.7548C112.05 63.0948 113.05 62.5998 113.716 62.2697L136.027 63.7593L136.363 59.4126L90.5752 57.4291L67.7806 34.0239Z" fill="#1F5148"/>
<defs>
<linearGradient id="paint0_linear" x1="-114.306" y1="-357.798" x2="509.622" y2="1064.52" gradientUnits="userSpaceOnUse">
<stop stop-color="#41CBB9"/>
<stop offset="1" stop-color="#3EB29D"/>
</linearGradient>
</defs>
</svg>
