<svg width="69" height="93" viewBox="0 0 69 93" fill="none" xmlns="http://www.w3.org/2000/svg">
<path d="M3.22954 80.9241C3.22954 80.9241 -7.48386 33.3522 68.0234 11.5907C68.0234 11.5907 57.8394 87.2359 3.22954 80.9241Z" fill="url(#paint0_linear)"/>
<path opacity="0.08" d="M39.5628 70.3719C26.8296 60.6864 29.4241 41.8532 35.217 25.3784C-3.91754 48.853 3.22956 80.924 3.22956 80.924C18.6423 82.7203 30.4848 78.0734 39.5628 70.3719Z" fill="#1F5148"/>
<path opacity="0.8" d="M48.4941 56.5078L26.5919 57.1664L45.8718 35.9025L58.2805 35.653L46.9338 34.8226L52.7971 28.2225L53.0512 28.2829L53.1111 28.0307L62.2201 17.9387L53.2908 27.2741L54.0572 18.3975L51.9748 28.2936L52.2289 28.354L35.8662 45.2487L37.8472 27.8683L34.4902 46.5204L14.2537 67.2906C14.3136 67.0384 14.3735 66.7862 14.4335 66.534C14.7185 64.2039 15.2432 60.8649 15.708 57.7781C16.6975 51.3524 17.4329 44.8663 17.4329 44.8663C17.4329 44.8663 16.1893 51.2317 15.1998 57.6574C14.4809 60.6838 13.9562 64.0228 13.417 66.2925C13.1773 67.3013 12.9976 68.0579 12.8778 68.5623L2.1387 79.8657L4.32048 81.9826L25.7841 58.3067L48.4941 56.5078Z" fill="#1F5148"/>
<defs>
<linearGradient id="paint0_linear" x1="339.786" y1="133.409" x2="-701.101" y2="-165.614" gradientUnits="userSpaceOnUse">
<stop stop-color="#41CBB9"/>
<stop offset="1" stop-color="#3EB29D"/>
</linearGradient>
</defs>
</svg>
