<svg width="140" height="119" viewBox="0 0 140 119" fill="none" xmlns="http://www.w3.org/2000/svg">
<path d="M136.127 61.7129C136.127 61.7129 93.4629 117.124 0.264907 53.7653C0.264907 53.7653 93.049 -4.31663 136.127 61.7129Z" fill="url(#paint0_linear)"/>
<path opacity="0.08" d="M91.1923 31.2992C92.1752 54.2218 69.0209 68.6171 45.5375 77.3231C107.296 98.9855 136.127 61.7128 136.127 61.7128C123.985 43.0634 108.007 34.2569 91.1923 31.2992Z" fill="#1F5148"/>
<path opacity="0.8" d="M67.7131 34.1506L88.5096 57.7095L47.3841 55.9249L35.7383 42.4643L45.2197 55.743L32.5657 55.3225L32.3994 54.9869L32.0663 55.1519L12.5858 54.3506L31.0669 55.6469L20.5719 62.9355L33.3976 56.1645L33.2313 55.8289L66.8635 58.3989L45.8742 72.1399L69.5273 58.7516L110.985 62.0438C110.652 62.2088 110.318 62.3738 109.985 62.5389C107.153 64.3596 102.989 66.8404 99.1578 69.1562C91.1622 73.9527 83.3329 79.0849 83.3329 79.0849C83.3329 79.0849 91.4947 74.624 99.4903 69.8275C103.488 67.8474 107.652 65.3666 110.65 63.8815C111.983 63.2215 112.982 62.7265 113.648 62.3964L135.959 63.886L136.295 59.5393L90.5077 57.5558L67.7131 34.1506Z" fill="#1F5148"/>
<defs>
<linearGradient id="paint0_linear" x1="-114.373" y1="-357.671" x2="509.555" y2="1064.65" gradientUnits="userSpaceOnUse">
<stop stop-color="#41CBB9"/>
<stop offset="1" stop-color="#3EB29D"/>
</linearGradient>
</defs>
</svg>
