<svg width="1920" height="1195" viewBox="0 0 1920 1195" fill="none" xmlns="http://www.w3.org/2000/svg">
<g opacity="0.5" clip-path="url(#clip0)">
<path d="M295.912 1108.1C474.283 1063.03 652.306 972.564 832.295 1006.85C967.968 1032.11 1087.66 1127.28 1226.01 1130.08C1367.21 1133.11 1488.83 1041.27 1617.41 983.861C1746 926.455 1926.24 918.558 1998.85 1038.93C2131.16 704.813 2288.43 381.31 2468.77 70.5714C1988.94 -155.177 1493.41 -346.306 987.519 -501.524C835.524 -548.481 669.648 -590.526 521.109 -534.724C349.675 -468.994 42.091 -399.455 -33.4998 -231C-166.97 64.2743 -78.1339 478.929 -167.626 790.945C-250.989 1083.93 47.7605 1171.68 295.912 1108.1Z" fill="url(#paint0_linear)"/>
</g>
<g clip-path="url(#clip1)">
<path opacity="0.3" d="M269.901 1024.62C449.961 986.847 631.524 903.716 809.966 945.304C944.497 976.075 1060.21 1076.04 1198.33 1084.48C1339.29 1093.26 1464.55 1006.46 1595.37 954.337C1726.18 902.219 1906.6 901.675 1974.24 1024.91C2120.06 696.459 2290.38 379.635 2483.24 76.5044C2013.01 -168.612 1525.68 -379.778 1026.54 -555.486C876.582 -608.599 712.557 -657.37 561.867 -607.668C387.897 -548.979 77.734 -492.034 -4.65959 -326.8C-150.053 -37.2106 -78.1908 380.72 -180.325 688.829C-275.56 978.177 19.3647 1078.03 269.901 1024.62Z" fill="#3BD1BB"/>
</g>
<g clip-path="url(#clip2)">
<path opacity="0.3" d="M296.003 1079.03C474.374 1033.95 652.398 943.489 832.387 977.77C968.06 1003.03 1087.75 1098.2 1226.1 1101C1367.3 1104.03 1488.92 1012.19 1617.5 954.786C1746.09 897.379 1926.33 889.482 1998.94 1009.86C2131.25 675.737 2288.52 352.235 2468.86 41.496C1989.04 -184.252 1493.5 -375.381 987.611 -530.6C835.616 -577.557 669.739 -619.602 521.2 -563.8C349.767 -498.069 42.1827 -428.531 -33.4081 -260.076C-166.878 35.1988 -78.0423 449.853 -167.534 761.869C-250.897 1054.86 47.8522 1142.61 296.003 1079.03Z" fill="#3BD1BB"/>
</g>
<g clip-path="url(#clip3)">
<path opacity="0.3" d="M296.003 1079.03C474.374 1033.95 652.398 943.489 832.387 977.77C968.06 1003.03 1087.75 1098.2 1226.1 1101C1367.3 1104.03 1488.92 1012.19 1617.5 954.786C1746.09 897.379 1926.33 889.482 1998.94 1009.86C2131.25 675.737 2288.52 352.235 2468.86 41.4959C1989.04 -184.253 1493.5 -375.381 987.611 -530.6C835.616 -577.557 669.739 -619.602 521.2 -563.8C349.767 -498.07 42.1827 -428.531 -33.4081 -260.076C-166.878 35.1987 -78.0423 449.853 -167.534 761.869C-250.897 1054.86 47.8522 1142.61 296.003 1079.03Z" fill="#3BD1BB"/>
</g>
<g opacity="0.3" clip-path="url(#clip4)">
<path d="M896.8 386.151C1024.16 421.773 1162.85 434.209 1271.05 519.922C1372.94 601.37 1428.22 735.919 1543.4 795.778C1620.62 836.919 1705.36 831.602 1787.38 841.593C1869.83 851.058 1967.58 889.678 2000.46 966.495C2160.12 790.926 2303.25 600.993 2428.81 399.33C2094.14 117.297 1744.22 -147.386 1381.65 -392.591C1300.45 -447.495 1208.65 -504.047 1121.54 -497.158C1055.18 -491.733 1006.77 -449.74 963.112 -408.247C785.935 -233.838 317.592 222.647 896.8 386.151Z" fill="url(#paint1_linear)"/>
</g>
<g opacity="0.3" clip-path="url(#clip5)">
<path d="M-125.107 798.551C-55.3358 686.203 -4.66484 556.503 107.85 476.551C214.513 401.453 359.145 385.947 448.787 292.067C509.857 229.404 528.415 146.55 560.912 70.5853C593.025 -5.93863 657.406 -89.0193 740.35 -99.1442C616.349 -301.475 473.943 -491.956 315.364 -668.827C-48.9059 -426.232 -400.776 -164.145 -737.473 115.524C-812.868 178.159 -892.807 250.518 -910.517 336.086C-923.838 401.319 -897.035 459.532 -869.385 513.04C-751.391 731.873 -443.852 1309.06 -125.107 798.551Z" fill="url(#paint2_linear)"/>
</g>
<g opacity="0.3" clip-path="url(#clip6)">
<path d="M-115.727 759.55C-33.8597 655.684 30.9624 532.446 151.694 465.543C266.067 402.812 411.527 403.537 511.081 320.241C578.76 264.781 606.444 184.514 647.212 112.649C687.659 40.1842 760.906 -35.1967 844.462 -36.0063C743.805 -250.906 623.534 -456.083 485.674 -649.539C96.6167 -449.09 -282.292 -227.889 -648.084 12.4778C-729.995 66.312 -817.506 129.303 -844.65 212.361C-865.165 275.701 -845.022 336.541 -823.513 392.799C-730.665 623.428 -489.428 1231.32 -115.727 759.55Z" fill="url(#paint3_linear)"/>
</g>
<defs>
<linearGradient id="paint0_linear" x1="937" y1="-73.5002" x2="937" y2="1361.5" gradientUnits="userSpaceOnUse">
<stop stop-color="#1A7F72"/>
<stop offset="1" stop-color="#7ADBAE"/>
</linearGradient>
<linearGradient id="paint1_linear" x1="1157.14" y1="666.093" x2="1797.47" y2="-118.113" gradientUnits="userSpaceOnUse">
<stop stop-color="#1A7F72" stop-opacity="0"/>
<stop offset="1" stop-color="#1A7F72"/>
</linearGradient>
<linearGradient id="paint2_linear" x1="216.398" y1="626.747" x2="-357.797" y2="-207.101" gradientUnits="userSpaceOnUse">
<stop stop-color="#1A7F72" stop-opacity="0"/>
<stop offset="1" stop-color="#1A7F72"/>
</linearGradient>
<linearGradient id="paint3_linear" x1="242.81" y1="626.91" x2="-234.79" y2="-265.782" gradientUnits="userSpaceOnUse">
<stop stop-color="#1A7F72" stop-opacity="0"/>
<stop offset="1" stop-color="#1A7F72"/>
</linearGradient>
<clipPath id="clip0">
<rect width="2146.26" height="1773.67" fill="white" transform="translate(1574.74 1779.95) rotate(-156.955)"/>
</clipPath>
<clipPath id="clip1">
<rect width="2151.67" height="1749.86" fill="white" transform="translate(1545.95 1760.2) rotate(-154.62)"/>
</clipPath>
<clipPath id="clip2">
<rect width="2145.54" height="1750.07" fill="white" transform="translate(1586.61 1755.89) rotate(-156.955)"/>
</clipPath>
<clipPath id="clip3">
<rect width="2146.04" height="1747.46" fill="white" transform="translate(1585.99 1755.62) rotate(-156.955)"/>
</clipPath>
<clipPath id="clip4">
<rect width="1580.86" height="999.696" fill="white" transform="translate(1725.88 1130.62) rotate(-140.767)"/>
</clipPath>
<clipPath id="clip5">
<rect width="955.685" height="609.913" fill="white" transform="translate(789.156 232.461) rotate(145.448)"/>
</clipPath>
<clipPath id="clip6">
<rect width="959.178" height="666.589" fill="white" transform="translate(846.159 304.225) rotate(151.853)"/>
</clipPath>
</defs>
</svg>
