<svg width="222" height="152" viewBox="0 0 222 152" fill="none" xmlns="http://www.w3.org/2000/svg">
<path d="M85.6931 41.9019C83.9209 40.6681 81.717 42.7276 82.2915 44.6678C84.2066 51.1351 92.5654 53.2322 98.4456 52.8979C104.23 52.2402 110.087 49.4508 113.656 44.8766C115.441 42.5895 116.615 39.428 116.173 36.7454C116.113 35.3562 115.215 33.5117 113.634 32.9247C112.149 32.6609 111.143 34.014 110.784 35.1756C110.424 36.3372 110.711 37.3073 110.256 38.1456C109.897 39.3072 109.022 39.9178 107.92 40.9475C106.819 41.9773 106.268 42.4922 105.393 43.1028C104.842 43.6176 104.195 43.8092 103.872 43.9049C103.549 44.0007 103.549 44.0007 103.225 44.0964C103.225 44.0964 102.579 44.2879 102.255 44.3837C99.4408 45.5688 96.4347 46.1072 93.7882 45.484C90.914 45.28 88.6269 43.4952 85.6931 41.9019Z" fill="url(#paint0_linear)"/>
<path d="M93.1555 32.6578C92.9279 33.0769 92.9279 33.0769 92.7003 33.4961C91.9814 35.8193 92.7474 38.4062 94.843 39.5442C96.4237 40.1313 98.1363 39.9759 99.8488 39.8205C101.142 39.4375 102.34 38.7311 103.119 37.7971C104.676 35.9292 104.976 33.3783 103.659 31.3063C102.952 30.1086 101.695 29.4258 100.437 28.7429C100.018 28.5153 99.2759 28.3835 98.5334 28.2516C97.4676 28.2155 96.4975 28.5028 95.6231 29.1134C95.0722 29.6283 94.5212 30.1431 94.8084 31.1132C94.4851 31.209 94.2575 31.6281 93.9341 31.7238C93.7065 32.143 93.3831 32.2387 93.1555 32.6578C93.4789 32.5621 93.4789 32.5621 93.1555 32.6578ZM96.2447 35.9637C96.5681 35.8679 96.5681 35.8679 96.2447 35.9637V35.9637ZM99.1315 32.6468C99.1315 32.6468 99.4548 32.5511 99.5506 32.8745C99.5506 32.8745 99.6463 33.1978 99.9697 33.1021C99.9697 33.1021 99.9697 33.1021 100.065 33.4254C100.161 33.7488 100.161 33.7488 100.257 34.0722L100.353 34.3955C100.353 34.3955 100.448 34.7189 100.125 34.8146L99.8975 35.2338C99.8975 35.2338 99.5741 35.3295 99.6699 35.6529L99.3465 35.7486C99.3465 35.7486 99.3465 35.7486 99.0232 35.8444C98.6998 35.9401 98.6998 35.9401 98.3764 36.0359C98.3764 36.0359 98.3764 36.0359 98.0531 36.1316C97.7297 36.2274 97.4063 36.3232 97.4063 36.3232C97.083 36.4189 97.083 36.4189 96.6639 36.1913C96.6639 36.1913 96.6639 36.1913 96.3405 36.287C96.3405 36.287 96.3405 36.287 96.0171 36.3828C96.0171 36.3828 96.0171 36.3828 95.598 36.1552C95.598 36.1552 95.598 36.1552 95.5023 35.8318L95.3107 35.1851C95.215 34.8617 95.5384 34.766 95.4426 34.4426L95.8978 33.6044C96.5446 33.4129 96.8679 33.3171 97.5147 33.1256C98.7124 32.4192 98.8081 32.7426 99.1315 32.6468Z" fill="url(#paint1_linear)"/>
<path d="M125.435 75.1535C127.88 69.154 127.162 61.9803 121.331 57.7279C114.984 52.9246 107.355 54.4802 101.139 58.4312C95.7974 61.7715 90.2877 66.9202 92.9452 73.5194C94.1303 76.3339 98.3341 75.0891 97.4723 72.1788C96.5509 67.8794 101.018 65.1496 104.384 63.4496C108.624 61.1389 113.702 59.2835 117.857 62.6255C121.078 65.1889 121.029 69.7756 120.37 73.488C119.879 75.3921 118.741 77.4877 117.411 78.9365C115.758 80.4812 114.141 80.9599 111.782 81.3068C109.842 81.8814 109.733 85.0789 111.961 85.4745C114.188 85.87 116.129 85.2955 117.973 84.3976C122.883 84.3505 127.493 86.8543 129.576 91.5132C131.947 97.1423 129.658 104.854 124.927 109.069C120.747 112.769 114.962 113.427 109.897 111.761C104.831 110.096 98.9039 105.52 102.09 99.6522C103.911 96.2993 98.7861 93.2446 96.6419 96.6933C92.8086 102.752 95.3343 110.094 100.519 114.538C105.608 118.659 113.129 120.3 119.692 118.709C125.608 117.309 130.567 112.675 133.202 107.322C135.97 101.227 137.229 92.4127 132.08 86.9029C129.602 84.4714 126.38 81.908 122.991 81.153C122.668 81.2488 122.249 81.0211 122.249 81.0211C123.483 79.2489 124.621 77.1533 125.435 75.1535Z" fill="url(#paint2_linear)"/>
<path d="M221.355 43.9364C220.134 42.1877 218.23 41.6964 216.649 41.1093C214.23 40.067 211.716 38.7013 209.201 37.3357C203.752 34.3767 198.112 30.771 193.347 26.5547C184.426 18.9965 176.379 10.8276 165.674 5.55646C157.387 1.32761 148.478 -0.254688 139.364 1.03719C135.939 1.348 118.322 4.8061 124.272 11.8369C124.691 12.0645 124.787 12.3879 125.53 12.5198C124.979 13.0346 125.266 14.0047 125.781 14.5557C127.84 16.7596 131.002 17.9338 133.612 19.6228C136.546 21.2161 139.671 23.4561 142.701 25.3727C148.628 29.9485 154.005 35.0391 158.602 41.0637C167.283 52.562 171.855 65.6284 170.608 80.4184C170.308 82.9692 167.564 91.5195 172.606 90.73C178.295 89.7489 177.362 79.4734 177.279 75.6292C176.981 68.6831 176.455 62.1562 174.444 55.3655C172.433 48.5749 168.806 42.263 164.304 36.5618C159.287 30.3095 153.491 24.9913 146.821 20.2836C143.696 18.0436 139.924 15.9951 136.571 14.1743C134.152 13.132 131.218 11.5387 128.344 11.3346C130.321 9.69424 131.746 8.56875 134.428 8.12609C137.662 7.16856 141.087 6.85775 144.608 6.87031C154.333 6.45277 163.457 11.1368 171.061 16.6231C179.599 22.8878 186.58 31.0206 195.668 36.7705C200.374 39.5976 205.404 42.329 210.565 44.3178C211.727 44.6773 213.403 45.5877 214.888 45.8514C213.786 46.8812 212.684 47.9109 212.133 48.4258C208.695 52.2575 206.611 57.0954 204.85 61.8376C201.231 70.9985 199.098 80.4231 197.061 90.1712C195.191 98.1108 192.483 105.595 186.003 111.031C180.721 115.761 170.074 121.376 162.817 118.249C164.374 116.381 165.608 114.609 166.746 112.513C168.986 109.388 170.232 104.095 173.083 101.844C176.485 99.0778 172.953 93.0893 169.228 95.9509C166.377 98.2019 164.88 101.459 163.059 104.812C160.783 109.003 157.764 113.063 154.973 116.703C148.612 124.917 140.192 130.928 130.264 134.219C120.659 137.415 110.839 137.509 100.827 136.957C89.7492 136.368 80.2414 130.391 70.3741 125.575C69.1167 124.892 67.8829 126.664 68.8169 127.443C75.7739 133.12 82.3118 138.571 90.7664 140.991C89.892 141.602 88.6944 142.308 86.9818 142.463C83.7481 143.421 80.323 143.732 76.8021 143.719C67.0776 144.137 57.9528 139.453 50.349 133.967C41.8113 127.702 34.8307 119.569 25.7419 113.819C21.0359 110.992 16.0065 108.261 10.8452 106.272C9.68363 105.912 8.00715 105.002 6.52219 104.738C7.62414 103.708 8.72609 102.679 9.27707 102.164C12.7148 98.3321 14.7994 93.4942 16.5606 88.752C20.1788 79.5911 22.3121 70.1664 24.3496 60.4184C26.2192 52.4787 28.927 44.9943 35.4068 39.5583C40.4613 35.2478 50.1387 29.9202 57.4317 31.9812C54.7726 34.8789 52.5326 38.0043 50.3883 41.453C39.667 58.6964 38.945 80.0134 45.3369 99.2237C48.1498 107.535 53.3692 120.41 63.4406 122.352C64.183 122.484 64.9616 121.55 64.4468 120.999C61.4894 116.951 57.981 113.417 55.5747 108.854C52.6534 103.74 50.9298 97.9193 49.6254 92.3263C47.208 81.7871 46.2159 70.1225 49.1278 59.7638C52.3991 48.2436 59.251 38.1251 68.0666 29.8872C72.702 25.3491 78.0799 20.9429 84.2599 18.0577C90.6676 14.7535 97.8412 14.0361 105.015 13.3187C105.949 14.0973 107.566 13.6186 108.344 12.6846L108.572 12.2655C110.129 10.3975 109.303 6.42135 106.297 6.95976C100.381 8.35996 93.8541 8.88582 88.0336 10.6094C82.213 12.3329 77.1946 15.5776 72.5953 19.0498C68.8703 21.9114 65.5645 25.0006 62.2586 28.0899C54.3911 24.0886 44.9775 27.9313 37.7912 32.1696C29.9583 36.5993 25.023 43.6882 22.2792 52.2386C18.8524 62.0462 17.8447 72.8962 14.4179 82.7039C12.6206 88.5118 10.2723 94.8347 6.4751 99.828C5.69652 100.762 0.773844 104.33 1.34836 106.27L1.025 106.366C0.150659 106.977 0.342165 107.623 0.437918 107.947C1.65917 109.695 3.56325 110.187 5.14397 110.774C7.56292 111.816 10.0776 113.182 12.5923 114.547C18.0409 117.506 23.6809 121.112 28.4466 125.328C37.3674 132.887 45.4138 141.055 56.1193 146.327C64.4059 150.555 73.3157 152.138 82.4296 150.846C85.4356 150.307 97.4597 148.154 98.5742 143.603C108.777 144.802 119.017 144.936 128.813 142.387C138.934 139.742 148.839 133.995 156.037 126.236C156.816 125.302 157.594 124.368 158.373 123.434C166.432 128.082 176.492 124.047 183.679 119.809C191.512 115.379 196.447 108.291 199.191 99.7402C202.617 89.9326 203.625 79.0826 207.052 69.2749C208.849 63.4669 211.198 57.1441 214.995 52.1508C215.773 51.2168 220.696 47.6488 220.122 45.7086L220.445 45.6128C221.738 45.2298 221.87 44.4874 221.355 43.9364Z" fill="url(#paint3_linear)"/>
<defs>
<linearGradient id="paint0_linear" x1="91.3255" y1="9.63457" x2="130.497" y2="141.918" gradientUnits="userSpaceOnUse">
<stop stop-color="white"/>
<stop offset="1" stop-color="white" stop-opacity="0"/>
</linearGradient>
<linearGradient id="paint1_linear" x1="91.3255" y1="9.63457" x2="130.497" y2="141.918" gradientUnits="userSpaceOnUse">
<stop stop-color="white"/>
<stop offset="1" stop-color="white" stop-opacity="0"/>
</linearGradient>
<linearGradient id="paint2_linear" x1="91.3255" y1="9.63457" x2="130.497" y2="141.918" gradientUnits="userSpaceOnUse">
<stop stop-color="white"/>
<stop offset="1" stop-color="white" stop-opacity="0"/>
</linearGradient>
<linearGradient id="paint3_linear" x1="91.3255" y1="9.63457" x2="130.497" y2="141.918" gradientUnits="userSpaceOnUse">
<stop stop-color="white"/>
<stop offset="1" stop-color="white" stop-opacity="0"/>
</linearGradient>
</defs>
</svg>
