<?xml version="1.0" standalone="no"?><svg xmlns="http://www.w3.org/2000/svg" viewBox="0 0 1440 320"><path fill="#0099ff" fill-opacity="1" d="M0,64L21.8,96C43.6,128,87,192,131,218.7C174.5,245,218,235,262,208C305.5,181,349,139,393,138.7C436.4,139,480,181,524,192C567.3,203,611,181,655,165.3C698.2,149,742,139,785,128C829.1,117,873,107,916,128C960,149,1004,203,1047,208C1090.9,213,1135,171,1178,176C1221.8,181,1265,235,1309,240C1352.7,245,1396,203,1418,181.3L1440,160L1440,320L1418.2,320C1396.4,320,1353,320,1309,320C1265.5,320,1222,320,1178,320C1134.5,320,1091,320,1047,320C1003.6,320,960,320,916,320C872.7,320,829,320,785,320C741.8,320,698,320,655,320C610.9,320,567,320,524,320C480,320,436,320,393,320C349.1,320,305,320,262,320C218.2,320,175,320,131,320C87.3,320,44,320,22,320L0,320Z"></path></svg>